HIERARCHY
ROOT Hips
{
	OFFSET 0.00000 0.00000 0.00000
	CHANNELS 6 Xposition Yposition Zposition Zrotation Yrotation Xrotation 
	JOINT LHipJoint
	{
		OFFSET 0 0 0
		CHANNELS 3 Zrotation Yrotation Xrotation
		JOINT LeftUpLeg
		{
			OFFSET 1.52977 -1.71332 0.88991
			CHANNELS 3 Zrotation Yrotation Xrotation
			JOINT LeftLeg
			{
				OFFSET 2.23949 -6.15296 0.00000
				CHANNELS 3 Zrotation Yrotation Xrotation
				JOINT LeftFoot
				{
					OFFSET 2.68396 -7.37412 0.00000
					CHANNELS 3 Zrotation Yrotation Xrotation
					JOINT LeftToeBase
					{
						OFFSET 0.20538 -0.56428 2.52710
						CHANNELS 3 Zrotation Yrotation Xrotation
						End Site
						{
							OFFSET 0.00000 -0.00000 1.29919
						}
					}
				}
			}
		}
	}
	JOINT RHipJoint
	{
		OFFSET 0 0 0
		CHANNELS 3 Zrotation Yrotation Xrotation
		JOINT RightUpLeg
		{
			OFFSET -1.45689 -1.71333 0.88991
			CHANNELS 3 Zrotation Yrotation Xrotation
			JOINT RightLeg
			{
				OFFSET -2.36700 -6.50329 0.00000
				CHANNELS 3 Zrotation Yrotation Xrotation
				JOINT RightFoot
				{
					OFFSET -2.69814 -7.41308 0.00000
					CHANNELS 3 Zrotation Yrotation Xrotation
					JOINT RightToeBase
					{
						OFFSET -0.18734 -0.51471 2.37479
						CHANNELS 3 Zrotation Yrotation Xrotation
						End Site
						{
							OFFSET -0.00000 -0.00000 1.22113
						}
					}
				}
			}
		}
	}
	JOINT LowerBack
	{
		OFFSET 0 0 0
		CHANNELS 3 Zrotation Yrotation Xrotation
		JOINT Spine
		{
			OFFSET 0.04294 2.14638 -0.31163
			CHANNELS 3 Zrotation Yrotation Xrotation
			JOINT Spine1
			{
				OFFSET -0.00400 2.17216 0.01486
				CHANNELS 3 Zrotation Yrotation Xrotation
				JOINT Neck
				{
					OFFSET 0 0 0
					CHANNELS 3 Zrotation Yrotation Xrotation
					JOINT Neck1
					{
						OFFSET 0.03869 1.76598 0.14916
						CHANNELS 3 Zrotation Yrotation Xrotation
						JOINT Head
						{
							OFFSET -0.00760 1.75513 -0.18948
							CHANNELS 3 Zrotation Yrotation Xrotation
							End Site
							{
								OFFSET -0.00601 1.82444 -0.08310
							}
						}
					}
				}
				JOINT LeftShoulder
				{
					OFFSET 0 0 0
					CHANNELS 3 Zrotation Yrotation Xrotation
					JOINT LeftArm
					{
						OFFSET 3.73696 0.92058 0.01733
						CHANNELS 3 Zrotation Yrotation Xrotation
						JOINT LeftForeArm
						{
							OFFSET 5.22771 -0.00000 0.00000
							CHANNELS 3 Zrotation Yrotation Xrotation
							JOINT LeftHand
							{
								OFFSET 3.45251 -0.00000 0.00000
								CHANNELS 3 Zrotation Yrotation Xrotation
								JOINT LeftFingerBase
								{
									OFFSET 0 0 0
									CHANNELS 3 Zrotation Yrotation Xrotation
									JOINT LeftHandIndex1
									{
										OFFSET 0.55212 -0.00000 0.00000
										CHANNELS 3 Zrotation Yrotation Xrotation
										End Site
										{
											OFFSET 0.44513 -0.00000 0.00000
										}
									}
								}
								JOINT LThumb
								{
									OFFSET 0 0 0
									CHANNELS 3 Zrotation Yrotation Xrotation
									End Site
									{
										OFFSET 0.45193 -0.00000 0.45193
									}
								}
							}
						}
					}
				}
				JOINT RightShoulder
				{
					OFFSET 0 0 0
					CHANNELS 3 Zrotation Yrotation Xrotation
					JOINT RightArm
					{
						OFFSET -3.63819 0.83094 -0.13694
						CHANNELS 3 Zrotation Yrotation Xrotation
						JOINT RightForeArm
						{
							OFFSET -5.23980 -0.00000 -0.00000
							CHANNELS 3 Zrotation Yrotation Xrotation
							JOINT RightHand
							{
								OFFSET -3.48042 -0.00000 -0.00000
								CHANNELS 3 Zrotation Yrotation Xrotation
								JOINT RightFingerBase
								{
									OFFSET 0 0 0
									CHANNELS 3 Zrotation Yrotation Xrotation
									JOINT RightHandIndex1
									{
										OFFSET -0.61871 -0.00000 0.00000
										CHANNELS 3 Zrotation Yrotation Xrotation
										End Site
										{
											OFFSET -0.49882 -0.00000 0.00000
										}
									}
								}
								JOINT RThumb
								{
									OFFSET 0 0 0
									CHANNELS 3 Zrotation Yrotation Xrotation
									End Site
									{
										OFFSET -0.50644 -0.00000 0.50644
									}
								}
							}
						}
					}
				}
			}
		}
	}
}
MOTION
Frames: 15
Frame Time: 0.133333
0.00 0.00 0.00 0 0 0 0 0 0 -21 0 0 0 0 0 0 0 0 0 0 0 0 0 0 21 0 0 0 0 0 0 0 0 0 0 0 0 0 0 0 0 0 0 0 0 0 0 -16 0 0 21 0 0 11 0 0 0 -8 0 0 0 0 0 0 0 0 0 0 0 0 0 0 0 0 0 0 0 0 8 0 0 0 0 0 0 0 0 0 0 0 0 0 0 0 0 0
0.00 0.00 0.00 -17.6614 -84.3271 43.8927 0.0000 0.0000 0.0000 -5.9148 -9.9127 -70.8555 11.5359 18.1875 64.5100 -0.0825 -8.2817 -3.9457 0.6161 -5.0234 -13.9752 0.0000 0.0000 0.0000 10.0479 17.8334 -65.0271 -10.8485 -17.8601 62.2886 -1.7840 0.7459 -25.0537 -0.0008 0.1790 -0.4917 3.6690 -1.3612 31.2143 0.2055 -1.1800 7.1458 -1.4092 -0.8676 -9.0614 2.2405 0.2232 0.1919 1.2768 -0.0799 -25.4009 0.1046 -0.7859 -7.8515 -0.0000 -0.0000 0.0000 -80.7084 -6.1324 31.0852 33.2333 -43.5086 -13.5824 -0.0000 0.0000 -33.7616 15.2235 10.5475 2.8518 -7.1250 0.0000 -0.0000 -10.4373 40.6809 1.1255 -0.0000 -0.0000 0.0000 86.9502 5.3122 31.9450 -33.1816 43.4692 -13.5468 0.0000 -0.0000 -10.3681 -19.8315 -7.4700 2.6844 7.1250 -0.0000 -0.0000 5.9721 -37.8535 1.0552
0.00 0.00 0.00 -4.0448 -83.0979 30.9059 0.0000 0.0000 0.0000 -5.9488 -9.0275 -75.1787 12.4155 18.5608 67.2998 0.1056 -6.1515 11.1786 1.4630 -7.6442 -21.6385 0.0000 0.0000 0.0000 9.3726 17.1774 -63.3409 -10.0701 -17.4491 59.7224 -1.6268 0.1990 -24.0765 -0.0484 -1.4196 3.9043 3.6382 -1.4147 32.6072 -0.0527 -1.2395 6.9650 -1.5067 -0.8964 -9.1131 2.0083 0.2981 1.1027 1.1440 0.0578 -25.8931 0.0936 -0.6800 -8.1805 -0.0000 -0.0000 0.0000 -80.2194 -4.6471 30.0270 24.6763 -35.8713 -8.0994 -0.0000 0.0000 -29.1538 17.7156 11.4965 3.6430 -7.1250 0.0000 -0.0000 -8.4481 41.8808 0.6552 -0.0000 -0.0000 0.0000 86.0328 4.3805 30.3847 -26.2745 37.4785 -9.0541 0.0000 -0.0000 -7.5863 -21.4198 -7.6246 2.9796 7.1250 -0.0000 -0.0000 4.6376 -38.1252 0.7871
0.00 0.00 0.00 -7.0861 -84.4446 31.0589 0.0000 0.0000 0.0000 -7.6676 -10.2709 -72.6004 13.8898 19.0803 71.8678 0.5067 -3.4307 15.1382 3.1142 -10.8777 -31.8686 0.0000 0.0000 0.0000 6.5246 15.5938 -64.0739 -13.0487 -18.7997 69.2767 -0.2817 -1.0907 -10.4831 -0.4000 4.0608 -11.2477 2.5066 -0.7347 38.0674 -0.2059 -0.9277 8.2418 -1.0965 -0.8301 -9.5571 2.2125 0.2881 2.9036 1.9216 0.2711 -28.6317 0.3419 -0.7875 -9.4797 0.0000 0.0000 0.0000 -80.8899 -4.8022 29.9506 23.0908 -34.1880 -7.1893 -0.0000 0.0000 -27.3242 18.1876 10.5268 3.4350 -7.1250 0.0000 -0.0000 -7.8524 40.9214 0.7954 0.0000 0.0000 0.0000 86.8369 3.8368 32.1993 -26.6192 37.8137 -9.2647 0.0000 -0.0000 -6.2002 -20.9186 -8.0492 3.0637 7.1250 -0.0000 -0.0000 5.1164 -38.5418 0.8164
0.00 0.00 0.00 -21.2001 -85.3472 43.5379 0.0000 0.0000 0.0000 -8.1483 -9.5979 -69.1945 14.1967 19.1726 72.8044 0.5265 1.1385 13.3609 2.4035 -9.6603 -27.8835 0.0000 0.0000 0.0000 6.2829 15.8875 -69.6663 -14.0665 -19.1341 72.4076 0.0134 -7.3284 4.8235 -0.2002 2.8810 -7.9476 2.1579 -0.4149 39.7385 -0.5208 -0.7955 8.6571 -1.2818 -0.8049 -9.6472 1.7485 0.1435 3.1486 2.9561 0.2908 -28.2476 0.7753 -0.8231 -9.3895 -0.0000 0.0000 0.0000 -80.1557 -6.2030 28.8070 25.6718 -36.8828 -8.6899 -0.0000 0.0000 -26.8944 19.2196 10.4227 3.6088 -7.1250 0.0000 -0.0000 -6.9312 40.9055 0.7037 -0.0000 0.0000 0.0000 88.3134 1.8182 31.5437 -26.5723 37.7682 -9.2359 0.0000 -0.0000 -5.2682 -19.7088 -8.2377 2.9382 7.1250 -0.0000 -0.0000 6.1773 -38.6535 0.9701
0.00 0.00 0.00 13.6150 -83.8234 5.9137 0.0000 0.0000 0.0000 -4.4884 -11.9673 -68.3960 17.2232 19.8141 81.8570 1.9734 9.9412 25.2250 0.2849 -3.4327 -9.4858 0.0000 0.0000 0.0000 9.7352 16.7364 -63.8011 -15.8931 -19.5907 77.9132 0.2673 -11.5922 3.3960 -0.7765 5.6263 -15.7039 2.7936 -1.5162 41.2679 -0.9640 -1.9965 9.3427 -1.5676 -1.3700 -9.4219 1.1892 -0.3919 3.7836 3.4123 -0.4378 -29.3780 1.1259 -1.2041 -9.9115 0.0000 -0.0000 0.0000 -82.1577 -4.1517 28.8101 24.8650 -36.0657 -8.2103 -0.0000 0.0000 -26.6227 19.0158 10.6816 3.6550 -7.1250 0.0000 -0.0000 -7.1538 41.1576 0.6819 0.0000 -0.0000 0.0000 88.5035 1.5507 31.5327 -25.6993 36.9103 -8.7065 0.0000 -0.0000 -4.2477 -19.7974 -7.7968 2.7957 7.1250 -0.0000 -0.0000 6.0430 -38.1955 1.0170
0.00 0.00 0.00 14.3526 -82.9631 2.2563 0.0000 0.0000 0.0000 -15.0150 -9.2802 -73.9970 8.9237 16.7584 55.8258 1.3866 4.7594 21.2093 1.2005 -6.9518 -19.5728 0.0000 0.0000 0.0000 13.5781 14.1418 -58.1838 -17.0133 -19.7848 81.2373 0.6168 -14.8926 0.6139 -0.3336 3.7117 -10.2668 2.7946 -1.2108 42.1870 -0.9391 -1.6815 9.7998 -1.6613 -1.2508 -9.1659 1.2028 -0.6330 4.1487 3.7079 -0.6921 -29.9282 1.2688 -1.3730 -10.1821 0.0000 0.0000 0.0000 -84.0379 -2.1643 28.9612 23.5681 -34.7042 -7.4592 -0.0000 0.0000 -26.4406 18.7715 12.3647 4.1625 -7.1250 0.0000 -0.0000 -7.6813 42.8861 0.4032 0.0000 0.0000 0.0000 87.8726 2.3059 30.9247 -25.5128 36.7235 -8.5947 0.0000 -0.0000 -4.0453 -19.7693 -7.9869 2.8590 7.1250 -0.0000 -0.0000 6.0919 -38.3938 0.9955
0.00 0.00 0.00 109.3490 -89.2968 -91.1330 0.0000 0.0000 0.0000 -15.3535 -7.8447 -71.7675 11.3179 18.0871 63.8095 0.5191 -2.1350 14.5526 2.5862 -9.9930 -28.9540 0.0000 0.0000 0.0000 9.3614 13.5904 -50.1711 -18.3299 -19.9330 85.1117 -0.6859 -19.2732 18.8559 -0.0405 1.2996 -3.5735 0.2543 0.3438 39.9913 -1.9311 -0.9341 9.1655 -1.7369 -0.8780 -9.1868 1.2053 0.3454 3.6569 3.2224 0.5399 -29.4720 0.9671 -0.7403 -9.9350 -0.0000 0.0000 0.0000 -82.4418 -3.2786 27.1616 24.0338 -35.2000 -7.7260 -0.0000 0.0000 -25.9513 19.3447 11.1946 3.8991 -7.1250 0.0000 -0.0000 -6.9534 41.7242 0.5649 -0.0000 0.0000 0.0000 88.2997 0.3957 29.9919 -25.4858 36.6964 -8.5785 0.0000 -0.0000 -3.4095 -19.3013 -7.9231 2.7639 7.1250 -0.0000 -0.0000 6.4828 -38.2938 1.0760
0.00 0.00 0.00 8.6618 -84.1245 3.9606 0.0000 0.0000 0.0000 -6.9769 -9.2611 -61.5710 22.1078 19.8931 96.1734 0.7173 0.0452 15.9930 1.1419 -6.7859 -19.0826 0.0000 0.0000 0.0000 11.4537 15.0489 -67.3464 -18.2876 -19.9295 84.9875 0.1590 -11.3949 5.3919 -0.3983 4.0521 -11.2234 2.9754 -1.8195 41.6157 -1.2263 -2.4486 10.0117 -1.7511 -1.6177 -8.8088 0.7079 -0.2651 2.8330 3.9535 -0.2072 -27.6115 1.3284 -1.0271 -9.0909 -0.0000 -0.0000 0.0000 -82.8471 -1.4659 27.9775 23.2815 -34.3952 -7.2967 -0.0000 0.0000 -25.8837 18.8933 11.4154 3.8751 -7.1250 0.0000 -0.0000 -7.3922 41.9110 0.5668 -0.0000 -0.0000 0.0000 86.7287 0.5042 30.0602 -25.6090 36.8200 -8.6523 0.0000 -0.0000 -3.6916 -19.2276 -8.6937 3.0178 7.1250 -0.0000 -0.0000 6.6544 -39.0965 0.9730
0.00 0.00 0.00 149.7060 -87.4480 -135.6420 0.0000 0.0000 0.0000 -18.0933 -7.2166 -65.3404 15.2159 19.4422 75.8861 0.4684 -1.9282 13.7737 3.3900 -11.3011 -33.3021 0.0000 0.0000 0.0000 6.6430 14.5533 -64.4096 -20.7309 -19.9872 92.1374 -0.1661 -2.6830 7.2377 -0.2327 3.1048 -8.5708 0.3173 0.0429 40.5829 -2.1482 -1.4524 9.8188 -1.7828 -1.1689 -8.6661 1.6020 0.8925 2.8429 1.5699 0.9740 -27.1955 0.2491 -0.2994 -8.9513 -0.0000 -0.0000 0.0000 -81.8591 -1.3630 27.5648 22.8399 -33.9133 -7.0488 -0.0000 0.0000 -25.7159 18.9367 11.0644 3.7671 -7.1250 0.0000 -0.0000 -7.2905 41.5495 0.6242 -0.0000 -0.0000 0.0000 88.0321 0.4515 31.5460 -25.4428 36.6532 -8.5529 0.0000 -0.0000 -3.4303 -19.1319 -8.7000 3.0037 7.1250 -0.0000 -0.0000 6.7375 -39.0958 0.9854
0.00 0.00 0.00 133.2540 -88.0808 -118.9120 0.0000 0.0000 0.0000 -20.0746 -4.3141 -57.5419 15.4022 19.4854 76.4453 0.4055 1.1524 11.6817 3.2433 -11.0789 -32.5465 0.0000 0.0000 0.0000 5.1194 17.5251 -70.4289 -9.7737 -17.2806 58.7292 0.1324 -11.3326 5.8132 -0.1654 2.6204 -7.2237 0.8746 -0.4161 41.0063 -1.8041 -1.7762 10.0883 -1.5692 -1.3333 -8.5010 2.0015 0.9492 2.5834 1.3121 0.9964 -27.7073 0.0969 -0.3360 -9.0816 0.0000 -0.0000 0.0000 -82.3682 -1.4886 28.3995 23.5646 -34.7004 -7.4572 -0.0000 0.0000 -25.7875 19.1316 11.4626 3.9436 -7.1250 0.0000 -0.0000 -7.1899 41.9834 0.5381 0.0000 -0.0000 0.0000 87.7655 0.1580 30.9663 -24.8714 36.0722 -8.2141 0.0000 -0.0000 -2.3015 -19.8316 -8.2208 2.9520 7.1250 -0.0000 -0.0000 6.0699 -38.6446 0.9544
0.00 0.00 0.00 -572.3630 -86.5116 580.4340 0.0000 0.0000 0.0000 -23.9261 8.9913 -49.1770 12.4749 18.5843 67.4865 -0.0406 -3.6509 0.5260 3.3125 -11.1846 -32.9049 0.0000 0.0000 0.0000 11.9353 14.3033 -54.4911 -9.2039 -16.9371 56.7925 -0.0138 -6.9884 -10.2873 -1.1949 -6.9361 19.5261 -0.4427 -1.2198 29.2074 -1.4565 -2.7579 9.8819 -0.4256 -1.7160 -5.0250 0.0052 -1.4407 -1.6430 4.7336 -1.7854 -10.5119 1.5787 -1.1560 -3.0348 0.0000 0.0000 0.0000 -82.4239 -2.7005 27.5142 22.1518 -33.1481 -6.6686 -0.0000 0.0000 -24.5469 19.2958 8.2794 2.8862 -7.1250 0.0000 -0.0000 -6.5367 38.6673 1.0248 0.0000 0.0000 0.0000 87.4379 -1.3424 31.6980 -22.7872 33.8553 -7.0194 0.0000 -0.0000 -2.1591 -20.5375 -5.8766 2.1966 7.1250 -0.0000 -0.0000 5.1946 -36.2105 1.1263
0.00 0.00 0.00 -580.5740 -86.3161 587.4800 0.0000 0.0000 0.0000 -24.7826 12.4980 -41.8352 10.9065 17.8891 62.4777 -0.0133 -3.7330 -1.9626 3.1002 -10.8555 -31.7942 0.0000 0.0000 0.0000 14.2349 12.0692 -50.0546 -4.5554 -12.8649 38.8647 0.0473 -8.7262 -11.4994 -0.1384 -2.3975 6.6056 -0.9283 -1.3242 26.4437 -1.4311 -2.8684 9.4027 -0.1662 -1.7396 -4.2326 -0.4604 -2.0050 -2.9722 5.2326 -2.5792 -6.8787 1.7350 -1.4357 -1.5659 -0.0000 0.0000 0.0000 -83.0902 -2.5389 25.8412 21.7692 -32.7152 -6.4606 -0.0000 0.0000 -24.9045 17.3844 12.9468 4.0124 -7.1250 0.0000 -0.0000 -9.0436 43.3404 0.3736 -0.0000 0.0000 0.0000 87.2690 -2.2135 30.7008 -21.3389 32.2218 -6.2296 0.0000 -0.0000 -1.3865 -20.3618 -5.8927 2.1821 7.1250 -0.0000 -0.0000 5.3431 -36.2182 1.1577
0.00 0.00 0.00 -595.9790 -85.3602 601.0920 0.0000 0.0000 0.0000 -25.1355 16.1829 -32.6943 8.7662 16.6549 55.2779 -0.0473 -5.4463 -2.1115 3.2309 -11.0598 -32.4817 0.0000 0.0000 0.0000 15.9028 8.6492 -46.9864 -3.1876 -10.9927 32.2552 -0.6799 -13.0332 -25.2112 -1.3130 -7.2579 20.4818 -2.0829 -1.0884 23.8316 -1.8115 -2.7296 9.1988 -0.0424 -1.6693 -3.1585 -0.5616 -2.8710 -4.6018 5.7520 -3.8410 -2.9996 1.8262 -1.9491 -0.0254 0.0000 0.0000 0.0000 -82.9532 -2.6157 25.6344 20.7653 -31.5534 -5.9266 -0.0000 0.0000 -24.7498 17.1636 13.6666 4.1737 -7.1250 0.0000 -0.0000 -9.4050 44.0543 0.2216 0.0000 0.0000 0.0000 87.6563 -2.3032 29.3827 -19.7659 30.3593 -5.4125 0.0000 -0.0000 -0.1822 -20.3259 -5.5955 2.0685 7.1250 -0.0000 -0.0000 5.3424 -35.9012 1.1990
0.00 0.00 0.00 -576.0620 -81.9617 576.9440 0.0000 0.0000 0.0000 -21.6593 23.4777 -7.0000 4.3952 12.6685 38.1399 -0.0186 -2.6244 2.0427 3.6959 -11.7444 -34.8337 0.0000 0.0000 0.0000 21.5809 3.1392 -33.4833 -2.4052 -9.6634 27.8935 -2.1281 -11.5514 -33.6774 -2.2840 -9.4341 27.1628 -1.4556 -1.1774 17.6393 -1.5316 -2.3422 7.5895 -0.3442 -1.3855 -1.7761 -1.9091 -3.0819 -8.6367 5.1754 -4.5308 9.7406 1.6085 -2.0187 4.4956 0.0000 -0.0000 0.0000 -86.1750 0.9237 22.2394 18.1218 -28.3128 -4.6068 -0.0000 0.0000 -25.5980 19.8233 11.8520 4.2343 -7.1250 0.0000 -0.0000 -6.6455 42.4598 0.4185 0.0000 -0.0000 0.0000 86.4951 -2.0090 27.9427 -17.3789 27.3546 -4.2600 0.0000 0.0000 1.6488 -20.2032 -5.3572 1.9678 7.1250 -0.0000 -0.0000 5.4204 -35.6426 1.2509
